# xmcd CD database file
#
# Track frame offsets:
#	150
#	13783
#	30650
#	52575
#	68608
#	88843
#	102933
#	115550
#	135765
#	156445
#	172504
#	192215
#	215853
#	227616
#	252174
#	267376
#	289784
#	305983
#	329373
#
# Disc length: 4529 seconds
#
# Revision: 0
# Processed by: cddbd v1.5.1PL2 Copyright (c) Steve Scherf et al.
# Submitted via: CDex 1.51
#
DISCID=0011af13
DTITLE=Various Artist - Ultimate Smooth Jazz - CD2 (After Hours)
DYEAR=2006
DGENRE=Jazz
TTITLE0=Billie Holiday - Moonglow
TTITLE1=Lizz Wright - Dreaming Wide Awake
TTITLE2=The Oscar Peterson Trio - Night Train
TTITLE3=Madeleine Peyroux - No More
TTITLE4=Matt Dusk - Two Shots of Happy, One Shot of Sad
TTITLE5=Norah Jones - The Nearness of You
TTITLE6=Laura Fygi - Let There Be Love
TTITLE7=Natalie Cole - My Baby Just Cares for Me
TTITLE8=Oleta Adams - Get Here
TTITLE9=Billy Paul - Me and Mrs Jones
TTITLE10=Mark Whitfield - Spring in Manhatten
TTITLE11=Ella Fitzgerald - Stormy Weather
TTITLE12=Sarah Vaughan - I'll Never Smile Again
TTITLE13=Herbie Hancock - Cantaloupe Island
TTITLE14=Mica Paris and Will Downing - Where is the Love
TTITLE15=Deniece Williams - Free
TTITLE16=Remy Shand - The Colour of Day
TTITLE17=Elvis Costello and Burt Bacharach - This House Is Empty Now
TTITLE18=Louis Armstrong - What a Wonderful World
EXTD=YEAR: 2006
EXTT0=
EXTT1=
EXTT2=
EXTT3=
EXTT4=
EXTT5=
EXTT6=
EXTT7=
EXTT8=
EXTT9=
EXTT10=
EXTT11=
EXTT12=
EXTT13=
EXTT14=
EXTT15=
EXTT16=
EXTT17=
EXTT18=
PLAYORDER=
